<svg data-v-fde0c5aa="" xmlns="http://www.w3.org/2000/svg" viewBox="0 0 300 300" class="font"><!----><defs data-v-fde0c5aa=""><!----></defs><rect data-v-fde0c5aa="" fill="#223843" x="0" y="0" width="300px" height="300px" class="logo-background-square"></rect><defs data-v-fde0c5aa=""><!----></defs><g data-v-fde0c5aa="" id="f520f816-5581-44aa-b32a-0c2f6e808634" fill="#FFFFFF" transform="matrix(2.668182611465454,0,0,2.668182611465454,38.69717642599962,129.0818646958499)"><path d="M4.02 8.61L4.02 11.33L4.02 11.33Q4.02 11.86 4.09 12.19L4.09 12.19L4.09 12.19Q4.16 12.52 4.38 12.69L4.38 12.69L4.38 12.69Q4.59 12.87 4.99 12.94L4.99 12.94L4.99 12.94Q5.39 13.01 6.06 13.02L6.06 13.02L6.06 13.58L0.49 13.58L0.49 13.02L0.49 13.02Q0.95 13.01 1.25 12.94L1.25 12.94L1.25 12.94Q1.54 12.87 1.69 12.70L1.69 12.70L1.69 12.70Q1.85 12.53 1.90 12.22L1.90 12.22L1.90 12.22Q1.96 11.91 1.96 11.42L1.96 11.42L1.96 4.96L1.96 4.96Q1.96 4.47 1.91 4.16L1.91 4.16L1.91 4.16Q1.86 3.86 1.72 3.69L1.72 3.69L1.72 3.69Q1.58 3.51 1.32 3.45L1.32 3.45L1.32 3.45Q1.06 3.39 0.64 3.36L0.64 3.36L0.64 2.80L9.21 2.80L9.38 5.75L8.79 5.75L8.79 5.75Q8.71 5.15 8.55 4.74L8.55 4.74L8.55 4.74Q8.39 4.33 8.09 4.07L8.09 4.07L8.09 4.07Q7.80 3.81 7.34 3.70L7.34 3.70L7.34 3.70Q6.87 3.58 6.20 3.58L6.20 3.58L4.27 3.58L4.27 3.58Q4.02 3.58 4.02 3.82L4.02 3.82L4.02 7.87L4.02 7.87Q4.87 7.87 5.41 7.80L5.41 7.80L5.41 7.80Q5.95 7.73 6.27 7.53L6.27 7.53L6.27 7.53Q6.59 7.32 6.73 6.97L6.73 6.97L6.73 6.97Q6.87 6.62 6.93 6.05L6.93 6.05L7.45 6.05L7.45 10.43L6.93 10.43L6.93 10.43Q6.85 9.84 6.69 9.48L6.69 9.48L6.69 9.48Q6.54 9.13 6.22 8.94L6.22 8.94L6.22 8.94Q5.91 8.75 5.38 8.68L5.38 8.68L5.38 8.68Q4.84 8.61 4.02 8.61L4.02 8.61ZM13.10 1.96L13.10 11.28L13.10 11.28Q13.10 11.84 13.15 12.18L13.15 12.18L13.15 12.18Q13.19 12.52 13.31 12.70L13.31 12.70L13.31 12.70Q13.44 12.88 13.68 12.94L13.68 12.94L13.68 12.94Q13.92 13.01 14.32 13.02L14.32 13.02L14.32 13.58L9.91 13.58L9.91 13.02L9.91 13.02Q10.30 13.01 10.55 12.93L10.55 12.93L10.55 12.93Q10.79 12.85 10.93 12.68L10.93 12.68L10.93 12.68Q11.06 12.50 11.11 12.19L11.11 12.19L11.11 12.19Q11.16 11.87 11.16 11.38L11.16 11.38L11.16 5.60L11.16 5.60Q11.16 4.79 11.13 4.26L11.13 4.26L11.13 4.26Q11.10 3.74 11.06 3.54L11.06 3.54L11.06 3.54Q10.99 3.19 10.75 3.08L10.75 3.08L10.75 3.08Q10.50 2.97 9.86 2.97L9.86 2.97L9.86 2.49L13.10 1.96ZM19.43 10.92L19.43 9.59L19.43 9.59Q18.26 10.12 17.66 10.58L17.66 10.58L17.66 10.58Q17.07 11.03 17.07 11.52L17.07 11.52L17.07 11.52Q17.07 11.93 17.29 12.17L17.29 12.17L17.29 12.17Q17.51 12.40 17.85 12.40L17.85 12.40L17.85 12.40Q18.19 12.40 18.48 12.29L18.48 12.29L18.48 12.29Q18.77 12.17 18.98 11.97L18.98 11.97L18.98 11.97Q19.19 11.77 19.31 11.50L19.31 11.50L19.31 11.50Q19.43 11.23 19.43 10.92L19.43 10.92ZM17.46 9.70L19.43 8.85L19.43 8.26L19.43 8.26Q19.43 7.45 19.14 7.08L19.14 7.08L19.14 7.08Q18.86 6.71 18.26 6.71L18.26 6.71L18.26 6.71Q17.85 6.71 17.64 6.92L17.64 6.92L17.64 6.92Q17.43 7.14 17.25 7.64L17.25 7.64L17.25 7.64Q17.12 7.99 16.89 8.19L16.89 8.19L16.89 8.19Q16.66 8.39 16.25 8.39L16.25 8.39L16.25 8.39Q15.86 8.39 15.65 8.15L15.65 8.15L15.65 8.15Q15.44 7.91 15.44 7.48L15.44 7.48L15.44 7.48Q15.44 6.80 16.18 6.41L16.18 6.41L16.18 6.41Q16.91 6.02 18.40 6.02L18.40 6.02L18.40 6.02Q19.96 6.02 20.64 6.59L20.64 6.59L20.64 6.59Q21.31 7.15 21.31 8.48L21.31 8.48L21.31 11.55L21.31 11.55Q21.31 12.74 21.78 12.74L21.78 12.74L21.78 12.74Q22.05 12.74 22.27 12.56L22.27 12.56L22.48 12.96L22.48 12.96Q22.29 13.31 21.88 13.52L21.88 13.52L21.88 13.52Q21.46 13.72 20.94 13.72L20.94 13.72L20.94 13.72Q20.30 13.72 19.96 13.33L19.96 13.33L19.96 13.33Q19.63 12.94 19.63 12.22L19.63 12.22L19.56 12.22L19.56 12.22Q19.15 12.95 18.51 13.33L18.51 13.33L18.51 13.33Q17.86 13.71 17.04 13.71L17.04 13.71L17.04 13.71Q16.16 13.71 15.62 13.21L15.62 13.21L15.62 13.21Q15.09 12.71 15.09 11.91L15.09 11.91L15.09 11.91Q15.09 11.30 15.64 10.76L15.64 10.76L15.64 10.76Q16.18 10.22 17.46 9.70L17.46 9.70ZM24.15 13.09L23.84 13.58L23.41 13.58L23.41 11.03L24.00 11.03L24.00 11.03Q24.23 12.04 24.68 12.50L24.68 12.50L24.68 12.50Q25.13 12.96 25.84 12.96L25.84 12.96L25.84 12.96Q26.36 12.96 26.65 12.75L26.65 12.75L26.65 12.75Q26.94 12.53 26.94 12.15L26.94 12.15L26.94 12.15Q26.94 11.76 26.59 11.39L26.59 11.39L26.59 11.39Q26.24 11.02 25.45 10.60L25.45 10.60L25.45 10.60Q24.39 10.02 23.93 9.46L23.93 9.46L23.93 9.46Q23.46 8.89 23.46 8.18L23.46 8.18L23.46 8.18Q23.46 7.71 23.64 7.31L23.64 7.31L23.64 7.31Q23.81 6.92 24.12 6.62L24.12 6.62L24.12 6.62Q24.42 6.33 24.84 6.17L24.84 6.17L24.84 6.17Q25.26 6.01 25.75 6.01L25.75 6.01L25.75 6.01Q26.18 6.01 26.61 6.13L26.61 6.13L26.61 6.13Q27.03 6.26 27.36 6.48L27.36 6.48L27.61 6.15L27.97 6.15L27.97 8.26L27.43 8.26L27.43 8.26Q27.10 7.46 26.76 7.11L26.76 7.11L26.76 7.11Q26.42 6.76 25.93 6.76L25.93 6.76L25.93 6.76Q25.54 6.76 25.30 6.97L25.30 6.97L25.30 6.97Q25.07 7.18 25.07 7.53L25.07 7.53L25.07 7.53Q25.07 7.92 25.42 8.27L25.42 8.27L25.42 8.27Q25.76 8.62 26.56 9.04L26.56 9.04L26.56 9.04Q27.12 9.35 27.52 9.65L27.52 9.65L27.52 9.65Q27.93 9.94 28.18 10.24L28.18 10.24L28.18 10.24Q28.43 10.54 28.55 10.87L28.55 10.87L28.55 10.87Q28.67 11.20 28.67 11.58L28.67 11.58L28.67 11.58Q28.67 12.07 28.49 12.46L28.49 12.46L28.49 12.46Q28.31 12.85 27.97 13.13L27.97 13.13L27.97 13.13Q27.64 13.41 27.17 13.57L27.17 13.57L27.17 13.57Q26.70 13.72 26.12 13.72L26.12 13.72L26.12 13.72Q25.52 13.72 25.00 13.56L25.00 13.56L25.00 13.56Q24.49 13.40 24.15 13.09L24.15 13.09ZM32.59 9.42L32.59 11.28L32.59 11.28Q32.59 11.86 32.63 12.19L32.63 12.19L32.63 12.19Q32.66 12.52 32.78 12.70L32.78 12.70L32.78 12.70Q32.90 12.88 33.15 12.94L33.15 12.94L33.15 12.94Q33.39 12.99 33.81 13.02L33.81 13.02L33.81 13.58L29.40 13.58L29.40 13.02L29.40 13.02Q29.82 12.99 30.07 12.94L30.07 12.94L30.07 12.94Q30.32 12.88 30.45 12.71L30.45 12.71L30.45 12.71Q30.58 12.54 30.61 12.23L30.61 12.23L30.61 12.23Q30.65 11.91 30.65 11.38L30.65 11.38L30.65 5.63L30.65 5.63Q30.65 4.79 30.63 4.30L30.63 4.30L30.63 4.30Q30.60 3.82 30.55 3.57L30.55 3.57L30.55 3.57Q30.51 3.39 30.45 3.28L30.45 3.28L30.45 3.28Q30.39 3.18 30.28 3.12L30.28 3.12L30.28 3.12Q30.16 3.05 29.95 3.03L29.95 3.03L29.95 3.03Q29.75 3.01 29.44 3.01L29.44 3.01L29.44 2.49L32.56 1.96L32.56 7.13L32.62 7.13L32.62 7.13Q33.05 6.55 33.59 6.29L33.59 6.29L33.59 6.29Q34.13 6.02 34.89 6.02L34.89 6.02L34.89 6.02Q36.26 6.02 37.02 6.86L37.02 6.86L37.02 6.86Q37.38 7.28 37.59 7.88L37.59 7.88L37.59 7.88Q37.80 8.47 37.80 9.11L37.80 9.11L37.80 11.28L37.80 11.28Q37.80 11.87 37.83 12.20L37.83 12.20L37.83 12.20Q37.86 12.53 37.98 12.71L37.98 12.71L37.98 12.71Q38.09 12.88 38.33 12.94L38.33 12.94L38.33 12.94Q38.57 12.99 38.99 13.02L38.99 13.02L38.99 13.58L34.61 13.58L34.61 13.02L34.61 13.02Q35.03 13.01 35.27 12.94L35.27 12.94L35.27 12.94Q35.52 12.88 35.65 12.71L35.65 12.71L35.65 12.71Q35.78 12.54 35.82 12.23L35.82 12.23L35.82 12.23Q35.85 11.91 35.85 11.38L35.85 11.38L35.85 9.66L35.85 9.66Q35.85 8.18 35.53 7.56L35.53 7.56L35.53 7.56Q35.21 6.94 34.43 6.94L34.43 6.94L34.43 6.94Q33.59 6.94 33.10 7.56L33.10 7.56L33.10 7.56Q32.86 7.88 32.73 8.36L32.73 8.36L32.73 8.36Q32.59 8.83 32.59 9.42L32.59 9.42ZM49.53 10.40L49.31 13.58L39.66 13.58L39.66 13.02L39.66 13.02Q40.12 13.01 40.42 12.94L40.42 12.94L40.42 12.94Q40.71 12.87 40.87 12.70L40.87 12.70L40.87 12.70Q41.02 12.53 41.08 12.22L41.08 12.22L41.08 12.22Q41.13 11.91 41.13 11.42L41.13 11.42L41.13 4.96L41.13 4.96Q41.13 4.47 41.08 4.16L41.08 4.16L41.08 4.16Q41.03 3.86 40.89 3.69L40.89 3.69L40.89 3.69Q40.75 3.51 40.50 3.45L40.50 3.45L40.50 3.45Q40.24 3.39 39.82 3.36L39.82 3.36L39.82 2.80L44.65 2.80L44.65 3.36L44.65 3.36Q44.17 3.37 43.88 3.44L43.88 3.44L43.88 3.44Q43.60 3.51 43.44 3.70L43.44 3.70L43.44 3.70Q43.29 3.88 43.24 4.20L43.24 4.20L43.24 4.20Q43.19 4.52 43.19 5.05L43.19 5.05L43.19 10.92L43.19 10.92Q43.19 11.51 43.31 11.88L43.31 11.88L43.31 11.88Q43.43 12.25 43.72 12.45L43.72 12.45L43.72 12.45Q44.02 12.66 44.51 12.73L44.51 12.73L44.51 12.73Q45.00 12.81 45.72 12.81L45.72 12.81L45.72 12.81Q46.54 12.81 47.08 12.71L47.08 12.71L47.08 12.71Q47.63 12.61 48.00 12.34L48.00 12.34L48.00 12.34Q48.37 12.07 48.59 11.61L48.59 11.61L48.59 11.61Q48.82 11.14 48.97 10.40L48.97 10.40L49.53 10.40ZM56.91 11.79L57.30 12.28L57.30 12.28Q56.03 13.72 54.12 13.72L54.12 13.72L54.12 13.72Q53.26 13.72 52.55 13.45L52.55 13.45L52.55 13.45Q51.84 13.17 51.34 12.68L51.34 12.68L51.34 12.68Q50.83 12.18 50.55 11.49L50.55 11.49L50.55 11.49Q50.27 10.81 50.27 9.97L50.27 9.97L50.27 9.97Q50.27 9.10 50.57 8.38L50.57 8.38L50.57 8.38Q50.86 7.66 51.40 7.13L51.40 7.13L51.40 7.13Q51.94 6.61 52.68 6.31L52.68 6.31L52.68 6.31Q53.41 6.02 54.29 6.02L54.29 6.02L54.29 6.02Q55.78 6.02 56.60 6.82L56.60 6.82L56.60 6.82Q57.43 7.62 57.43 9.06L57.43 9.06L57.43 9.06Q57.43 9.28 57.36 9.33L57.36 9.33L57.36 9.33Q57.29 9.38 56.97 9.38L56.97 9.38L52.46 9.38L52.46 9.38Q52.40 9.51 52.40 9.84L52.40 9.84L52.40 9.84Q52.40 11.21 53.00 12.01L53.00 12.01L53.00 12.01Q53.59 12.81 54.61 12.81L54.61 12.81L54.61 12.81Q55.20 12.81 55.78 12.54L55.78 12.54L55.78 12.54Q56.36 12.28 56.91 11.79L56.91 11.79ZM52.56 8.60L54.59 8.60L54.59 8.60Q55.15 8.60 55.31 8.53L55.31 8.53L55.31 8.53Q55.47 8.47 55.47 8.23L55.47 8.23L55.47 8.23Q55.47 7.62 55.12 7.22L55.12 7.22L55.12 7.22Q54.77 6.83 54.24 6.83L54.24 6.83L54.24 6.83Q53.63 6.83 53.17 7.33L53.17 7.33L53.17 7.33Q52.70 7.83 52.56 8.60L52.56 8.60ZM62.75 10.92L62.75 9.59L62.75 9.59Q61.57 10.12 60.98 10.58L60.98 10.58L60.98 10.58Q60.38 11.03 60.38 11.52L60.38 11.52L60.38 11.52Q60.38 11.93 60.61 12.17L60.61 12.17L60.61 12.17Q60.83 12.40 61.17 12.40L61.17 12.40L61.17 12.40Q61.50 12.40 61.80 12.29L61.80 12.29L61.80 12.29Q62.09 12.17 62.30 11.97L62.30 11.97L62.30 11.97Q62.51 11.77 62.63 11.50L62.63 11.50L62.63 11.50Q62.75 11.23 62.75 10.92L62.75 10.92ZM60.77 9.70L62.75 8.85L62.75 8.26L62.75 8.26Q62.75 7.45 62.46 7.08L62.46 7.08L62.46 7.08Q62.17 6.71 61.57 6.71L61.57 6.71L61.57 6.71Q61.17 6.71 60.96 6.92L60.96 6.92L60.96 6.92Q60.75 7.14 60.56 7.64L60.56 7.64L60.56 7.64Q60.44 7.99 60.21 8.19L60.21 8.19L60.21 8.19Q59.98 8.39 59.57 8.39L59.57 8.39L59.57 8.39Q59.18 8.39 58.97 8.15L58.97 8.15L58.97 8.15Q58.76 7.91 58.76 7.48L58.76 7.48L58.76 7.48Q58.76 6.80 59.49 6.41L59.49 6.41L59.49 6.41Q60.23 6.02 61.71 6.02L61.71 6.02L61.71 6.02Q63.28 6.02 63.95 6.59L63.95 6.59L63.95 6.59Q64.62 7.15 64.62 8.48L64.62 8.48L64.62 11.55L64.62 11.55Q64.62 12.74 65.10 12.74L65.10 12.74L65.10 12.74Q65.37 12.74 65.59 12.56L65.59 12.56L65.80 12.96L65.80 12.96Q65.60 13.31 65.19 13.52L65.19 13.52L65.19 13.52Q64.78 13.72 64.26 13.72L64.26 13.72L64.26 13.72Q63.62 13.72 63.28 13.33L63.28 13.33L63.28 13.33Q62.94 12.94 62.94 12.22L62.94 12.22L62.87 12.22L62.87 12.22Q62.47 12.95 61.82 13.33L61.82 13.33L61.82 13.33Q61.18 13.71 60.35 13.71L60.35 13.71L60.35 13.71Q59.47 13.71 58.94 13.21L58.94 13.21L58.94 13.21Q58.41 12.71 58.41 11.91L58.41 11.91L58.41 11.91Q58.41 11.30 58.95 10.76L58.95 10.76L58.95 10.76Q59.50 10.22 60.77 9.70L60.77 9.70ZM69.58 10.74L69.58 11.41L69.58 11.41Q69.58 11.96 69.63 12.27L69.63 12.27L69.63 12.27Q69.68 12.59 69.83 12.75L69.83 12.75L69.83 12.75Q69.99 12.92 70.28 12.97L70.28 12.97L70.28 12.97Q70.57 13.02 71.06 13.02L71.06 13.02L71.06 13.58L66.39 13.58L66.39 13.02L66.39 13.02Q66.81 12.99 67.06 12.94L67.06 12.94L67.06 12.94Q67.31 12.88 67.44 12.71L67.44 12.71L67.44 12.71Q67.56 12.54 67.60 12.23L67.60 12.23L67.60 12.23Q67.63 11.91 67.63 11.38L67.63 11.38L67.63 9.67L67.63 9.67Q67.63 8.81 67.59 8.29L67.59 8.29L67.59 8.29Q67.55 7.77 67.41 7.49L67.41 7.49L67.41 7.49Q67.27 7.21 67.01 7.12L67.01 7.12L67.01 7.12Q66.75 7.03 66.33 7.03L66.33 7.03L66.33 6.54L69.13 6.02L69.36 7.63L69.41 7.63L69.41 7.63Q69.79 6.89 70.41 6.45L70.41 6.45L70.41 6.45Q71.02 6.02 71.71 6.02L71.71 6.02L71.71 6.02Q72.24 6.02 72.58 6.29L72.58 6.29L72.58 6.29Q72.91 6.55 72.91 6.96L72.91 6.96L72.91 6.96Q72.91 7.41 72.65 7.71L72.65 7.71L72.65 7.71Q72.39 8.02 71.95 8.02L71.95 8.02L71.95 8.02Q71.74 8.02 71.57 7.94L71.57 7.94L71.57 7.94Q71.40 7.85 71.27 7.75L71.27 7.75L71.27 7.75Q71.13 7.64 71.00 7.55L71.00 7.55L71.00 7.55Q70.87 7.46 70.73 7.46L70.73 7.46L70.73 7.46Q70.46 7.46 70.22 7.81L70.22 7.81L70.22 7.81Q69.99 8.16 69.83 8.75L69.83 8.75L69.83 8.75Q69.72 9.17 69.65 9.70L69.65 9.70L69.65 9.70Q69.58 10.22 69.58 10.74L69.58 10.74ZM76.54 9.37L76.54 11.30L76.54 11.30Q76.54 11.87 76.57 12.20L76.57 12.20L76.57 12.20Q76.61 12.53 76.73 12.71L76.73 12.71L76.73 12.71Q76.85 12.88 77.09 12.94L77.09 12.94L77.09 12.94Q77.34 12.99 77.76 13.02L77.76 13.02L77.76 13.58L73.35 13.58L73.35 13.02L73.35 13.02Q73.75 12.99 74.00 12.94L74.00 12.94L74.00 12.94Q74.24 12.88 74.38 12.71L74.38 12.71L74.38 12.71Q74.51 12.54 74.55 12.24L74.55 12.24L74.55 12.24Q74.59 11.93 74.59 11.40L74.59 11.40L74.59 9.65L74.59 9.65Q74.59 8.82 74.56 8.31L74.56 8.31L74.56 8.31Q74.54 7.80 74.49 7.62L74.49 7.62L74.49 7.62Q74.45 7.43 74.38 7.31L74.38 7.31L74.38 7.31Q74.31 7.20 74.17 7.13L74.17 7.13L74.17 7.13Q74.03 7.07 73.82 7.05L73.82 7.05L73.82 7.05Q73.61 7.03 73.29 7.03L73.29 7.03L73.29 6.55L75.99 6.02L76.17 7.25L76.23 7.25L76.23 7.25Q76.69 6.66 77.32 6.34L77.32 6.34L77.32 6.34Q77.95 6.02 78.71 6.02L78.71 6.02L78.71 6.02Q79.60 6.02 80.16 6.26L80.16 6.26L80.16 6.26Q80.71 6.51 81.14 7.08L81.14 7.08L81.14 7.08Q81.38 7.41 81.56 7.92L81.56 7.92L81.56 7.92Q81.75 8.43 81.75 9.32L81.75 9.32L81.75 11.30L81.75 11.30Q81.75 11.87 81.78 12.20L81.78 12.20L81.78 12.20Q81.82 12.53 81.94 12.71L81.94 12.71L81.94 12.71Q82.05 12.88 82.29 12.94L82.29 12.94L82.29 12.94Q82.53 12.99 82.94 13.02L82.94 13.02L82.94 13.58L78.55 13.58L78.55 13.02L78.55 13.02Q78.97 13.01 79.22 12.94L79.22 12.94L79.22 12.94Q79.46 12.88 79.59 12.71L79.59 12.71L79.59 12.71Q79.72 12.54 79.76 12.23L79.76 12.23L79.76 12.23Q79.80 11.91 79.80 11.40L79.80 11.40L79.80 9.49L79.80 9.49Q79.80 8.78 79.72 8.29L79.72 8.29L79.72 8.29Q79.63 7.80 79.44 7.50L79.44 7.50L79.44 7.50Q79.25 7.20 78.95 7.06L78.95 7.06L78.95 7.06Q78.64 6.93 78.18 6.93L78.18 6.93L78.18 6.93Q77.73 6.93 77.41 7.18L77.41 7.18L77.41 7.18Q77.08 7.43 76.85 7.88L76.85 7.88L76.85 7.88Q76.72 8.13 76.63 8.53L76.63 8.53L76.63 8.53Q76.54 8.93 76.54 9.37L76.54 9.37Z"></path></g><!----><!----></svg>